/vscmnt/brussel_pixiu_data/_data_brussel/112/vsc11236/PredSimResults/SUBJ09opt3D/expIG/worker_06.mot
version=1
nRows=8
nColumns=50
inDegrees=yes
endheader
                time	         pelvis_tilt	         pelvis_list	     pelvis_rotation	           pelvis_tx	           pelvis_ty	           pelvis_tz	       hip_flexion_r	     hip_adduction_r	      hip_rotation_r	        knee_angle_r	       ankle_angle_r	         mtp_angle_r	       hip_flexion_l	     hip_adduction_l	      hip_rotation_l	        knee_angle_l	       ankle_angle_l	         mtp_angle_l	    lumbar_extension	      lumbar_bending	     lumbar_rotation	 ercspn_r/activation	 intobl_r/activation	 extobl_r/activation	    abd_r/activation	    add_r/activation	hamstrings_r/activation	bifemsh_r/activation	glut_max_r/activation	iliopsoas_r/activation	rect_fem_r/activation	  vasti_r/activation	gastroc_r/activation	 soleus_r/activation	tib_ant_r/activation	 ercspn_l/activation	 intobl_l/activation	 extobl_l/activation	    abd_l/activation	    add_l/activation	hamstrings_l/activation	bifemsh_l/activation	glut_max_l/activation	iliopsoas_l/activation	rect_fem_l/activation	  vasti_l/activation	gastroc_l/activation	 soleus_l/activation	tib_ant_l/activation	
          1.34102458	         -3.73239036	         -0.43075238	          7.51663686	          1.47512704	          0.99387154	         -0.00311605	         27.56097314	         -1.95017602	         -8.37360766	         -6.07193949	          3.37070390	          0.23867103	        -12.58791622	         -2.11446373	         -6.49959144	        -11.24500894	          5.04631124	         34.84297849	        -13.79458590	         -2.08641937	         -6.84669613	          0.01923359	          0.16717892	          0.03635446	          0.00999999	          0.21296980	          0.04768228	          0.11627162	          0.06883350	          0.12342069	          0.01500249	          0.01000000	          0.01496937	          0.01000000	          0.30492091	          0.01223511	          0.01000000	          0.01000000	          0.03261732	          0.01000020	          0.01561416	          0.11313753	          0.01496961	          0.01382596	          0.01000004	          0.01000000	          0.27920331	          0.22966271	          0.01223503	
          1.35443483	         -3.79606133	         -0.51551554	          7.48219014	          1.49429486	          0.99175687	         -0.00213744	         27.40114566	         -1.78488654	         -8.51073393	         -7.59841862	          2.98478803	          0.20814619	        -13.23756205	         -2.42021129	         -6.96852631	        -11.87348630	          4.02888461	         36.33658156	        -13.28088609	         -1.64687499	         -7.06431998	          0.01572009	          0.13663944	          0.02971340	          0.05912543	          0.18216527	          0.05720699	          0.09503166	          0.09773893	          0.10087476	          0.01226191	          0.01000000	          0.01223509	          0.01223503	          0.33856120	          0.01000006	          0.00999999	          0.01000005	          0.02665894	          0.01000000	          0.01276184	          0.09247011	          0.01223503	          0.01130031	          0.01000001	          0.01000001	          0.25450477	          0.20657866	          0.00999999	
          1.36784508	         -3.84071335	         -0.61205950	          7.41223466	          1.51379896	          0.98997554	         -0.00107667	         27.12633065	         -1.61068664	         -8.68339483	         -8.96890700	          2.41678312	          0.20271898	        -13.71769721	         -2.76402209	         -7.45536909	        -12.85254123	          2.86105974	         37.80945080	        -12.74647664	         -1.19113685	         -7.24745182	          0.02131213	          0.11167878	          0.02428549	          0.10778434	          0.19164452	          0.05218514	          0.07767172	          0.12714777	          0.08244743	          0.01002196	          0.01000001	          0.01000004	          0.01000000	          0.38017498	          0.01000005	          0.00999999	          0.01000000	          0.02178900	          0.01000000	          0.01043057	          0.07557811	          0.01000000	          0.01496817	          0.01000004	          0.01000000	          0.21401939	          0.18290239	          0.00999999	
          1.38125532	         -3.86698641	         -0.71082724	          7.30692401	          1.53330056	          0.98873369	          0.00007461	         26.88792953	         -1.44111225	         -8.90316016	        -10.42962849	          1.85235786	          0.17328598	        -13.92644238	         -3.14706996	         -7.95420079	        -14.32633226	          1.55812354	         39.14588010	        -12.23236120	         -0.73014341	         -7.39230727	          0.02190180	          0.09127781	          0.01984913	          0.15262041	          0.21136079	          0.05362486	          0.06348301	          0.11944276	          0.06738631	          0.01000000	          0.07155545	          0.01000000	          0.01000000	          0.40282911	          0.05503342	          0.00999999	          0.01000000	          0.01780869	          0.01000002	          0.02142422	          0.06177186	          0.01000000	          0.01223387	          0.01000002	          0.01496780	          0.17492331	          0.14949063	          0.00999999	
          1.39466557	         -3.87641417	         -0.81966451	          7.17887111	          1.55257949	          0.98818341	          0.00130177	         26.71246106	         -1.26440692	         -9.09486166	        -12.05875477	          1.59266745	          0.13769521	        -13.79431603	         -3.58969540	         -8.46201923	        -16.38519857	          0.15351927	         40.14897573	        -11.75830105	         -0.25592224	         -7.50518287	          0.01790107	          0.07460360	          0.01622318	          0.17699192	          0.21927990	          0.05238323	          0.05188623	          0.13748181	          0.05507649	          0.01000000	          0.14985130	          0.01000001	          0.01000000	          0.40269558	          0.08346616	          0.01000000	          0.01000000	          0.01455548	          0.07777659	          0.03898273	          0.05048767	          0.00999999	          0.01000005	          0.01000000	          0.01223356	          0.14296913	          0.12218237	          0.00999999	
          1.40807581	         -3.87166265	         -0.92849901	          7.03166197	          1.57145157	          0.98844645	          0.00257194	         26.53652010	         -1.07536043	         -9.21861913	        -13.73073906	          1.69709197	          0.10729844	        -13.25779750	         -4.08986970	         -9.02740610	        -19.11091663	         -1.30242162	         40.52926582	        -11.34122822	          0.22097668	         -7.58735538	          0.01567872	          0.06097536	          0.01325961	          0.18503608	          0.25378754	          0.05457724	          0.04240790	          0.14258415	          0.04501537	          0.01000000	          0.17903880	          0.01000000	          0.01000000	          0.37468083	          0.08610813	          0.01154054	          0.01000000	          0.01189655	          0.14183048	          0.04231833	          0.04126483	          0.00999999	          0.01000005	          0.01000000	          0.01000000	          0.11685218	          0.09986265	          0.00999999	
          1.42148606	         -3.85444686	         -1.01319034	          6.86311728	          1.58984454	          0.98950894	          0.00384734	         26.28590914	         -0.88920378	         -9.28396139	        -15.29856773	          2.11883369	          0.10135207	        -12.29022571	         -4.64058736	         -9.69313237	        -22.55244607	         -2.72739226	         39.94561992	        -10.98780251	          0.67527791	         -7.63572943	          0.01281467	          0.04983666	          0.01083741	          0.18141634	          0.26040021	          0.05914852	          0.03466102	          0.14490875	          0.03679217	          0.01000000	          0.20713718	          0.01000002	          0.01000002	          0.32402992	          0.07426615	          0.01000002	          0.01000000	          0.00999999	          0.20237495	          0.04700743	          0.03372685	          0.00999999	          0.01000016	          0.01000000	          0.00999999	          0.09550617	          0.08162020	          0.00999999	
          1.43489630	         -3.82610125	         -1.05078483	          6.66788250	          1.60775149	          0.99129492	          0.00508672	         25.87895147	         -0.71765310	         -9.28889893	        -16.59666873	          2.75479228	          0.17552375	        -10.91636984	         -5.23404434	        -10.44871392	        -26.62350208	         -4.23829013	         38.37263183	        -10.69772464	          1.08460679	         -7.64370591	          0.01047377	          0.04073273	          0.01000000	          0.17725967	          0.26130419	          0.06270501	          0.02832931	          0.15873005	          0.03007115	          0.01000000	          0.21689374	          0.01000001	          0.01000000	          0.27410333	          0.06069957	          0.01371121	          0.01000000	          0.00999999	          0.26120324	          0.04104297	          0.04197649	          0.00999999	          0.01000005	          0.00999999	          0.00999999	          0.07805954	          0.06671020	          0.03479370	
